<svg viewBox="0 0 14 12" fill="none"
    xmlns="http://www.w3.org/2000/svg">
    <path fill-rule="evenodd" clip-rule="evenodd" d="M4.9 1C6.21286 1 7.37421 2.54035 8.08099 4.23105C8.60067 3.39625 9.26988 2.77692 10 2.77692C11.6569 2.77692 13 5.96622 13 7.62308C13 9.27993 11.6569 10.6231 10 10.6231C9.1883 10.6231 8.45189 10.3007 7.91181 9.77702C7.19751 10.6458 6.11348 11.2 4.9 11.2C2.74609 11.2 1 9.45391 1 7.3C1 6.75173 1.11313 6.07438 1.31733 5.36919L1.41036 5.06556C2.05042 3.0847 3.37268 1 4.9 1ZM4.9 11.2C7.05391 11.2 8.8 9.45391 8.8 7.3C8.8 6.75173 8.68687 6.07438 8.48267 5.36919L8.38964 5.06556C7.74958 3.0847 6.42732 1 4.9 1C3.37268 1 2.05042 3.0847 1.41036 5.06556L1.31733 5.36919C1.11313 6.07438 1 6.75173 1 7.3C1 9.45391 2.74609 11.2 4.9 11.2Z" stroke="#727272" stroke-width="0.5" stroke-linecap="round"/>
</svg>
