<svg viewBox="0 0 8 14" fill="none"
    xmlns="http://www.w3.org/2000/svg">
    <path d="M2.33333 1H5.66667M1.20504 6.0077L1.82419 5.02438C2.36716 4.16206 2.71616 3.192 2.84702 2.18141L3 1H5L5.13831 2.10648C5.26678 3.13425 5.61771 4.12167 6.16667 5L6.79733 6.00906C6.92977 6.22097 7 6.46584 7 6.71573V11.6667C7 12.403 6.40305 13 5.66667 13H2.33333C1.59695 13 1 12.403 1 11.6667V6.71814C1 6.46673 1.07108 6.22045 1.20504 6.0077ZM1 8.33333L1.41886 8.47295C2.40911 8.80304 3.49828 8.62629 4.33333 8L4.4741 7.89443C5.16438 7.37672 6.07496 7.26931 6.86239 7.60316L7 7.66667V11.6667C7 12.403 6.40305 13 5.66667 13H2.33333C1.59695 13 1 12.403 1 11.6667V8.33333Z" stroke="#727272" stroke-width="0.5" stroke-linecap="round"/>
</svg>
