<svg viewBox="0 0 14 14" fill="none"
    xmlns="http://www.w3.org/2000/svg">
    <path fill-rule="evenodd" clip-rule="evenodd" d="M1 12.9993L9.14275 4.85646L1 12.9993ZM4.77285 5.16302C5.89492 6.00459 6.12232 7.59643 5.28076 8.7185C5.17247 8.86289 5.0492 8.99518 4.91312 9.11321L4.77285 9.22642C3.65077 8.38485 3.42337 6.79301 4.26493 5.67093C4.37322 5.52655 4.49649 5.39426 4.63257 5.27623L4.77285 5.16302ZM6.80452 3.13133C7.9266 3.97289 8.154 5.56473 7.31244 6.68681C7.20415 6.83119 7.08088 6.96348 6.9448 7.08152L6.80452 7.19472C5.68245 6.35316 5.45505 4.76131 6.29661 3.63924C6.4049 3.49485 6.52817 3.36256 6.66425 3.24453L6.80452 3.13133ZM8.8362 1.09963C9.95828 1.94119 10.1857 3.53304 9.34411 4.65511C9.23583 4.7995 9.11256 4.93179 8.97648 5.04982L8.8362 5.16302C7.71413 4.32146 7.48673 2.72962 8.32829 1.60754C8.43658 1.46316 8.55985 1.33087 8.69593 1.21283L8.8362 1.09963ZM12.8996 5.16302C12.058 6.28509 10.4662 6.5125 9.34414 5.67096C9.19975 5.56266 9.06745 5.43939 8.94941 5.3033L8.8362 5.16302C9.67775 4.04096 11.2696 3.81355 12.3916 4.65509C12.536 4.76338 12.6683 4.88666 12.7864 5.02274L12.8996 5.16302ZM10.8679 7.19472C10.0263 8.31679 8.43452 8.54419 7.31246 7.70265C7.16807 7.59436 7.03577 7.47109 6.91773 7.335L6.80452 7.19472C7.64607 6.07265 9.23788 5.84525 10.3599 6.68679C10.5043 6.79508 10.6366 6.91835 10.7547 7.05444L10.8679 7.19472ZM8.8362 9.22642C7.99466 10.3485 6.40284 10.5759 5.28078 9.73435C5.13639 9.62606 5.00409 9.50278 4.88605 9.3667L4.77285 9.22642C5.61439 8.10435 7.20621 7.87694 8.32827 8.71848C8.47266 8.82678 8.60496 8.95005 8.723 9.08614L8.8362 9.22642ZM2.69307 7.2428C3.81514 8.08437 4.04254 9.67621 3.20098 10.7983C3.09269 10.9427 2.96942 11.075 2.83334 11.193L2.69307 11.3062C1.57099 10.4646 1.34359 8.87279 2.18515 7.75071C2.29344 7.60633 2.41671 7.47404 2.55279 7.356L2.69307 7.2428ZM6.75642 11.3062C5.91488 12.4283 4.32306 12.6557 3.201 11.8141C3.05661 11.7058 2.92431 11.5826 2.80627 11.4465L2.69307 11.3062C3.53461 10.1841 5.12643 9.95672 6.24849 10.7983C6.39288 10.9066 6.52518 11.0298 6.64322 11.1659L6.75642 11.3062ZM12.9742 1.02552C13.1725 2.41404 12.2077 3.70043 10.8192 3.89878C10.6406 3.9243 10.4599 3.93068 10.2802 3.91792L10.1009 3.89875C9.90257 2.51026 10.8674 1.22388 12.2558 1.02552C12.4941 0.991492 12.7359 0.991492 12.9742 1.02552Z" stroke="#727272" stroke-width="0.5" stroke-linecap="round"/>
</svg>
